<?xml version="1.0" standalone="no"?><!DOCTYPE svg PUBLIC "-//W3C//DTD SVG 1.1//EN" "http://www.w3.org/Graphics/SVG/1.1/DTD/svg11.dtd"><svg t="1650438368316" class="icon" viewBox="0 0 1024 1024" version="1.1" xmlns="http://www.w3.org/2000/svg" p-id="5927" width="32" height="32" xmlns:xlink="http://www.w3.org/1999/xlink"><defs><style type="text/css">@font-face { font-family: feedback-iconfont; src: url("//at.alicdn.com/t/font_1031158_u69w8yhxdu.woff2?t=1630033759944") format("woff2"), url("//at.alicdn.com/t/font_1031158_u69w8yhxdu.woff?t=1630033759944") format("woff"), url("//at.alicdn.com/t/font_1031158_u69w8yhxdu.ttf?t=1630033759944") format("truetype"); }
</style></defs><path d="M449.536 513.0752a76.8 76.8 0 0 1 149.4272 35.3792l-1.024 4.3776-52.352 195.3536a76.8 76.8 0 0 1-35.2512 46.336l-4.4288 2.4064-207.9232 104.576a76.8 76.8 0 0 1-73.1392-134.9888l4.096-2.2272 177.1776-89.1392 43.4432-162.048z" fill="#1296db" p-id="5928"></path><path d="M499.0208 526.336a25.6 25.6 0 0 1 50.048 10.3168l-0.6144 2.9184-52.3264 195.3536a25.6 25.6 0 0 1-10.5472 14.6944l-2.688 1.536-207.9232 104.6016a25.6 25.6 0 0 1-25.6-44.2368l2.5856-1.4848 197.6576-99.4304 49.408-184.2688z" fill="#1296db" p-id="5929"></path><path d="M832.3072 356.4544a76.8 76.8 0 0 1 75.0592 133.9392l-4.096 2.304-123.648 64.4096a76.8 76.8 0 0 1-48.768 7.5264l-5.504-1.1776-147.968-37.2992a76.8 76.8 0 0 1 33.1776-149.9136l4.4032 0.9728 119.6288 30.1568 97.7152-50.9184z" fill="#1296db" p-id="5930"></path><path d="M855.9616 401.8688a25.6 25.6 0 0 1 26.24 43.8784l-2.56 1.536-123.6992 64.4096a25.6 25.6 0 0 1-15.0016 2.7136l-3.072-0.5888-147.9424-37.3248a25.6 25.6 0 0 1 9.5744-50.176l2.944 0.5376 138.4704 34.944 115.0464-59.904z" fill="#1296db" p-id="5931"></path><path d="M263.0656 414.0032l-2.4064 2.3552-2.5088 2.6112-2.5088 2.816a75.5456 75.5456 0 0 0 2.1248 98.6624l2.6112 2.688 2.6112 2.5088 2.816 2.5088 3.7376 2.9184c26.5472 19.5072 61.184 20.48 88.0128-0.6912l53.504-45.44-17.2032 46.976a114.816 114.816 0 0 0 78.1312 150.3744l10.6496 2.8672 6.0928 1.4592 2.1504 0.384 112.9984 31.5648-39.3728 147.0976-0.768 3.328-0.6656 3.2768-0.5376 3.4048c-5.2736 41.2928 25.4976 72.2688 60.8512 81.7408a75.5456 75.5456 0 0 0 92.5184-53.4016l58.8288-219.4944 0.768-3.3536 0.64-3.2512 0.5632-3.4304 0.4352-4.4544a75.5712 75.5712 0 0 0-47.104-75.136l-90.6752-32.6912 41.1392-112.3072a76.8 76.8 0 0 0 2.048-6.528l1.0496-4.4032a76.8 76.8 0 0 0-55.3472-89.6512l-56.4992-15.1552-1.1008-0.512a75.776 75.776 0 0 0-9.216-3.0976l-120.1408-32.1792-3.584-0.8448-3.4304-0.64-3.6352-0.5888c-21.5808-2.56-43.264 4.3008-59.4688 18.8928l-108.1088 98.816z" fill="#1296db" p-id="5932"></path><path d="M424.6016 347.136l3.456 0.6656 120.1152 32.2048a24.3968 24.3968 0 0 1 5.8112 2.3808l61.0048 16.384a25.6 25.6 0 0 1 18.1248 31.3344l-0.6912 2.176-58.8032 160.64 134.4256 48.512a24.3456 24.3456 0 0 1 17.8688 26.5728l-0.64 3.2512-58.8032 219.4944a24.3456 24.3456 0 0 1-29.824 17.2032c-11.904-3.1744-24.832-13.9008-23.3216-25.8048l0.64-3.2256 52.48-195.9936-163.7376-45.7984a64.5376 64.5376 0 0 1-6.8352-1.4336l-10.6496-2.8416a63.616 63.616 0 0 1-43.264-83.328l45.4656-124.2624-64.768-17.3312-95.4112 81.0752c-9.088 8.192-19.6864 7.2192-28.8256-0.3328l-2.6112-2.4832a24.3456 24.3456 0 0 1-0.6912-31.7952l2.4832-2.6112 107.8528-98.56a24.3456 24.3456 0 0 1 19.1488-6.0672z" fill="#1296db" p-id="5933"></path><path d="M652.6208 115.6864l-118.784-31.8464-31.8464 118.784a122.9824 122.9824 0 1 0 150.6304-86.9376z" fill="#1296db" p-id="5934"></path><path d="M551.424 215.8848l18.5856-69.3504 69.3504 18.6112a71.7824 71.7824 0 1 1-87.9104 50.7392z" fill="#1296db" p-id="5935"></path><path d="M256 132.5568a25.6 25.6 0 0 1 2.9952 51.0464L256 183.7568H102.4a25.6 25.6 0 0 1-2.9952-51.0208L102.4 132.5568h153.6z" fill="#1296db" p-id="5936"></path><path d="M230.4 236.8a25.6 25.6 0 0 1 2.9952 51.0208L230.4 287.9744H102.4a25.6 25.6 0 0 1-2.9952-51.0208L102.4 236.7744h128z" fill="#1296db" p-id="5937"></path><path d="M204.8 340.992a25.6 25.6 0 0 1 2.9952 51.0208L204.8 392.192H102.4a25.6 25.6 0 0 1-2.9952-51.0208L102.4 340.992h102.4z" fill="#1296db" p-id="5938"></path></svg>